<svg width="32" height="30" viewBox="0 0 32 30" fill="none" xmlns="http://www.w3.org/2000/svg">
<g clip-path="url(#clip0_19_215)">
<path d="M6.11 7.15274L12.7154 4.21328L19.7851 2.69995L27.3612 7.98614L19.7675 25.8713L3.09891 15.8862L6.11 7.15274Z" fill="#FDB300"/>
<path d="M8.01261 14.2863L19.7675 25.8713L3.09889 15.8862L8.01261 14.2863Z" fill="#EA6C00"/>
<path d="M22.4475 9.58605L19.7675 25.8712L27.3612 7.98608L22.4475 9.58605Z" fill="#EA6C00"/>
<path d="M8.01263 14.2863L22.4475 9.58608L19.7675 25.8713L8.01263 14.2863Z" fill="#FDAD00"/>
<path d="M12.7154 4.21327L6.10996 7.15273L8.01261 14.2863L12.7154 4.21327Z" fill="#FDD231"/>
<path d="M12.7153 4.21337L19.7851 2.70003L22.4474 9.58619L12.7153 4.21337Z" fill="#FDD231"/>
<path d="M27.3612 7.98617L19.7851 2.69999L22.4475 9.58614L27.3612 7.98617Z" fill="#FDAD00"/>
<path d="M3.09887 15.8863L6.10995 7.15281L8.01259 14.2863L3.09887 15.8863Z" fill="#FDAD00"/>
<path d="M12.7154 4.21327L8.01261 14.2863L22.4475 9.58609L12.7154 4.21327Z" fill="#FEEEB7"/>
</g>
<defs>
<clipPath id="clip0_19_215">
<rect width="25.5676" height="22.7885" fill="white" transform="translate(0.584229 8.16333) rotate(-18.0359)"/>
</clipPath>
</defs>
</svg>
