<svg width="62" height="62" viewBox="0 0 62 62" fill="none" xmlns="http://www.w3.org/2000/svg">
<g clip-path="url(#clip0_19_158)">
<path d="M30.7517 56.3172C32.7718 55.6684 34.4514 54.2436 35.4209 52.3563C36.3905 50.4691 36.5707 48.274 35.9218 46.2539L33.4751 38.6372L25.8584 41.0839C23.8384 41.7328 22.1588 43.1575 21.1892 45.0448C20.2197 46.932 20.0395 49.1271 20.6884 51.1472C21.3373 53.1673 22.7621 54.8468 24.6493 55.8164C26.5366 56.786 28.7317 56.9661 30.7517 56.3172Z" fill="#0ACF83"/>
<path d="M15.7951 35.9138C15.1462 33.8937 15.3264 31.6986 16.2959 29.8114C17.2655 27.9241 18.9451 26.4994 20.9651 25.8505L28.5818 23.4038L33.4751 38.6372L25.8584 41.0838C23.8384 41.7327 21.6433 41.5526 19.756 40.583C17.8688 39.6134 16.444 37.9339 15.7951 35.9138Z" fill="#A259FF"/>
<path d="M10.9018 20.6804C10.2532 18.6614 10.4329 16.4674 11.4012 14.5808C12.3695 12.6941 14.0473 11.2691 16.0659 10.619L23.6826 8.17234L28.5759 23.4057L20.9651 25.8504C18.9451 26.4993 16.7499 26.3192 14.8627 25.3496C12.9755 24.38 11.5507 22.7005 10.9018 20.6804Z" fill="#F24E1E"/>
<path d="M23.6885 8.17053L31.3052 5.72388C33.3253 5.07499 35.5204 5.25515 37.4076 6.22472C39.2949 7.19429 40.7197 8.87385 41.3686 10.8939C42.0175 12.914 41.8373 15.1091 40.8677 16.9963C39.8982 18.8836 38.2186 20.3084 36.1985 20.9573L28.5818 23.4039L23.6885 8.17053Z" fill="#FF7262"/>
<path d="M46.2619 26.1272C46.9108 28.1473 46.7306 30.3424 45.761 32.2296C44.7915 34.1169 43.1119 35.5416 41.0918 36.1905C39.0718 36.8394 36.8767 36.6593 34.9894 35.6897C33.1022 34.7201 31.6774 33.0406 31.0285 31.0205C30.3796 29.0004 30.5598 26.8053 31.5293 24.9181C32.4989 23.0308 34.1785 21.6061 36.1985 20.9572C38.2186 20.3083 40.4137 20.4884 42.301 21.458C44.1882 22.4276 45.613 24.1071 46.2619 26.1272Z" fill="#1ABCFE"/>
</g>
<defs>
<clipPath id="clip0_19_158">
<rect width="48" height="48" fill="white" transform="translate(0.83252 15.5123) rotate(-17.8082)"/>
</clipPath>
</defs>
</svg>
