<svg width="48" height="48" viewBox="0 0 48 48" fill="none" xmlns="http://www.w3.org/2000/svg">
<g id="iconspace_Monitor_25px">
<g id="Group 1797">
<path id="Path" fill-rule="evenodd" clip-rule="evenodd" d="M29.2221 34.56L30.7581 42.24H33.6C34.1302 42.24 34.56 42.6699 34.56 43.2C34.56 43.7302 34.1302 44.16 33.6 44.16H14.4C13.8698 44.16 13.44 43.7302 13.44 43.2C13.44 42.6699 13.8698 42.24 14.4 42.24H17.664L19.2 34.56H10.56C7.17461 34.56 4.3739 32.0567 3.90808 28.8L44.092 28.8C43.6262 32.0567 40.8254 34.56 37.44 34.56H29.2221Z" fill="#2E3E5C"/>
<path id="Path_2" d="M3.83997 26.8801V6.72009C3.83997 5.12951 5.12939 3.84009 6.71997 3.84009H41.28C42.8705 3.84009 44.16 5.12951 44.16 6.72009V26.8801H3.83997Z" fill="#706FE5"/>
</g>
</g>
</svg>
