<?xml version="1.0" encoding="utf-8"?><svg viewBox="0 0 126 94" xmlns="http://www.w3.org/2000/svg" xmlns:xlink="http://www.w3.org/1999/xlink"><style>:root>svg{display:none}:root>svg:target{display:block}</style><svg fill="none" viewBox="0 0 48 48" id="Button" xmlns="http://www.w3.org/2000/svg"><path opacity=".15" d="M0 24C0 10.745 10.745 0 24 0s24 10.745 24 24-10.745 24-24 24S0 37.255 0 24Z" fill="#706FE5"/><path fill-rule="evenodd" clip-rule="evenodd" d="M29.974 23.092c.703.406.7 1.408 0 1.815l-7.858 4.57c-.707.413-1.616-.084-1.616-.908v-9.142c0-.919.978-1.279 1.616-.908l7.858 4.573Z" fill="#706FE5"/></svg><svg fill="none" viewBox="0 0 24 22" id="Star" xmlns="http://www.w3.org/2000/svg"><path d="M11.103.817a1 1 0 0 1 1.794 0l2.69 5.453a1 1 0 0 0 .754.547l6.018.874a1 1 0 0 1 .554 1.706l-4.355 4.245a1 1 0 0 0-.287.885l1.028 5.993a1 1 0 0 1-1.451 1.054l-5.383-2.83a1 1 0 0 0-.93 0l-5.383 2.83a1 1 0 0 1-1.45-1.054l1.027-5.993a1 1 0 0 0-.287-.885L1.087 9.397a1 1 0 0 1 .554-1.706l6.018-.874a1 1 0 0 0 .753-.547L11.103.817Z" fill="#706FE5"/></svg><svg fill="none" viewBox="0 0 41 34" id="Xd" xmlns="http://www.w3.org/2000/svg"><path d="m18.242 7.607-2.246 11.246L25.5 26.47a.34.34 0 0 1 .118.21c.009.081-.086.052-.191.111l-4.266 1.547c-.298.108-.51.163-.707.024-.675-.64-1.361-1.255-2.036-1.896A80.078 80.078 0 0 0 16.3 24.58c-.737-.639-1.474-1.278-2.218-1.935l-.038.013c-.1.943-.239 1.9-.377 2.856s-.276 1.912-.402 2.843c-.145.938-.283 1.894-.435 2.813-.007.213-.149.286-.354.36L8.38 33.014c-.074.027-.116.085-.15-.008a.275.275 0 0 1-.037-.219l2.35-11.6-9.108-7.509c-.083-.054-.129-.122-.105-.173.017-.069.085-.115.16-.142l4.228-1.532c.093-.034.193-.049.274-.057.088.01.164.046.247.1a38.195 38.195 0 0 0 2.063 1.97c.737.64 1.45 1.266 2.198 1.88.731.62 1.425 1.254 2.106 1.913l.037-.013c.094-.962.214-1.911.34-2.842.126-.93.271-1.868.416-2.806.145-.938.264-1.887.397-2.8-.008-.08.002-.169.044-.226a.378.378 0 0 1 .229-.125l3.93-1.425c.087-.052.2-.03.252.056.026.012.015.1-.008.15ZM33.97 24.139a9.848 9.848 0 0 1-4.308.613 6.907 6.907 0 0 1-3.731-1.514c-1.101-.886-1.95-2.18-2.564-3.875a8.137 8.137 0 0 1-.4-4.302 8.227 8.227 0 0 1 1.915-3.96c1.04-1.2 2.477-2.12 4.32-2.789.094-.034.224-.08.399-.123.174-.042.36-.11.59-.172l-2.133-5.886c-.047-.13-.018-.225.112-.272L31.951.488c.087-.052.188-.005.234.063l.013.037 6.428 17.733c.122.335.275.7.442 1.104.18.377.333.743.467 1.053.047.13.031.262-.079.366-.82.76-1.736 1.43-2.712 1.994-.889.512-1.805.95-2.774 1.3Zm.475-4.387-2.97-8.196a5.073 5.073 0 0 0-.537.09c-.212.055-.423.11-.628.185-.727.263-1.4.675-1.93 1.247a4.44 4.44 0 0 0-1.083 1.952c-.194.745-.108 1.62.243 2.589a5.52 5.52 0 0 0 1.012 1.803c.368.436.81.782 1.317 1.02.476.206.999.311 1.537.285a5.186 5.186 0 0 0 1.634-.318c.28-.101.533-.215.769-.321.248-.07.44-.18.636-.336Z" fill="#FF61F6"/></svg><svg fill="none" viewBox="0 0 116 36" id="airbnb" xmlns="http://www.w3.org/2000/svg"><path fill-rule="evenodd" clip-rule="evenodd" d="M61.162 9.029a2.39 2.39 0 0 1-2.384 2.373c-1.338 0-2.384-1.042-2.384-2.373 0-1.331.988-2.373 2.384-2.373 1.395.116 2.384 1.158 2.384 2.373Zm-9.711 4.746v.579s-1.105-1.447-3.49-1.447c-3.954 0-7.036 3.01-7.036 7.119s3.024 7.119 7.037 7.119c2.442 0 3.489-1.505 3.489-1.505v.636c0 .29.232.521.523.521h2.908V13.254h-2.908c-.29 0-.523.29-.523.52Zm0 8.682c-.524.81-1.629 1.504-2.908 1.504-2.326 0-4.07-1.446-4.07-3.877s1.802-3.878 4.07-3.878c1.28 0 2.442.694 2.908 1.505v4.746Zm5.64-9.203h3.49v13.543h-3.49V13.254Zm51.93-.347c-2.384 0-3.489 1.447-3.489 1.447V6.772h-3.489v20.083h2.907a.52.52 0 0 0 .524-.52v-.637s1.105 1.505 3.489 1.505c3.954 0 7.036-3.01 7.036-7.12.058-4.167-3.024-7.176-6.978-7.176Zm-.582 10.997c-1.337 0-2.384-.695-2.907-1.505v-4.862c.523-.695 1.686-1.505 2.907-1.505 2.327 0 4.071 1.447 4.071 3.878 0 2.43-1.744 3.994-4.071 3.994Zm-8.199-5.094v8.103h-3.49v-7.698c0-2.257-.697-3.125-2.674-3.125-1.047 0-2.152.52-2.85 1.331v9.434h-3.489V13.254h2.734a.52.52 0 0 1 .523.52v.58c.989-1.042 2.384-1.447 3.722-1.447 1.512 0 2.79.405 3.78 1.273 1.279 1.042 1.744 2.315 1.744 4.63Zm-20.935-5.903c-2.384 0-3.489 1.447-3.489 1.447V6.772h-3.489v20.083h2.908a.52.52 0 0 0 .523-.52v-.637s1.105 1.505 3.49 1.505c3.954 0 7.036-3.01 7.036-7.12.058-4.167-3.024-7.176-6.979-7.176Zm-.581 10.997c-1.338 0-2.384-.695-2.908-1.505v-4.862c.524-.695 1.687-1.505 2.908-1.505 2.326 0 4.07 1.447 4.07 3.878 0 2.43-1.744 3.994-4.07 3.994Zm-9.42-10.997c1.046 0 1.57.173 1.57.173v3.184s-2.908-.984-4.71 1.1v9.491h-3.49V13.254h2.908a.52.52 0 0 1 .523.52v.58c.698-.753 2.151-1.447 3.198-1.447ZM33.19 25.64c-.175-.405-.349-.926-.523-1.273-.291-.637-.582-1.274-.814-1.852l-.059-.058c-2.5-5.383-5.175-10.881-8.025-16.322l-.116-.231c-.29-.521-.581-1.1-.872-1.679-.35-.637-.698-1.331-1.28-1.968C20.34.81 18.654 0 16.91 0c-1.803 0-3.431.81-4.653 2.141a10.14 10.14 0 0 0-1.337 2.026c-.29.579-.582 1.158-.873 1.679l-.116.231C7.14 11.46 4.406 16.958 1.905 22.4l-.058.058c-.232.578-.523 1.215-.814 1.852-.174.405-.349.81-.523 1.273-.466 1.331-.64 2.604-.407 3.878.407 2.72 2.21 4.977 4.71 5.961.93.405 1.919.579 2.907.579.291 0 .64-.058.93-.058 1.222-.116 2.443-.52 3.606-1.215 1.512-.81 2.908-2.026 4.478-3.762 1.57 1.736 3.024 2.893 4.478 3.762 1.22.694 2.442 1.1 3.605 1.215.29.058.64.058.93.058.99 0 2.036-.174 2.908-.579 2.559-.984 4.303-3.299 4.71-5.961.407-1.274.291-2.489-.174-3.82Zm-16.34 1.852c-1.978-2.43-3.199-4.746-3.664-6.714-.175-.81-.233-1.563-.117-2.2.059-.578.291-1.099.582-1.504.698-.984 1.86-1.563 3.198-1.563 1.338 0 2.559.579 3.199 1.563.29.405.523.926.581 1.505.117.636.058 1.389-.116 2.2-.465 1.91-1.745 4.224-3.664 6.713Zm14.421 1.678c-.233 1.852-1.512 3.473-3.315 4.225-.872.348-1.802.463-2.733.348-.93-.116-1.802-.405-2.733-.926-1.28-.695-2.617-1.852-4.129-3.473 2.385-2.894 3.838-5.614 4.362-7.987.232-1.1.29-2.142.174-3.068a5.03 5.03 0 0 0-.988-2.43c-1.105-1.621-3.024-2.547-5.118-2.547-2.093 0-4.012.984-5.117 2.546-.524.695-.814 1.563-.989 2.431-.116.926-.116 1.968.175 3.068.523 2.373 2.035 5.093 4.361 7.987-1.512 1.678-2.85 2.778-4.129 3.473-.93.52-1.86.81-2.733.926-.988.115-1.919-.058-2.733-.348-1.803-.694-3.024-2.373-3.315-4.225a5.47 5.47 0 0 1 .35-2.836c.116-.347.29-.694.464-1.157.233-.579.524-1.216.815-1.794l.058-.058c2.5-5.383 5.175-10.881 7.967-16.206l.116-.232c.29-.52.581-1.1.872-1.678.29-.579.64-1.1.989-1.563a3.822 3.822 0 0 1 2.907-1.33c1.105 0 2.152.462 2.908 1.33.407.463.698.984.989 1.563.29.52.581 1.1.872 1.678l.116.232a590.14 590.14 0 0 1 7.909 16.206v.058c.29.578.523 1.215.814 1.794.174.405.349.81.465 1.157.407.984.523 1.91.349 2.836Z" fill="#2E3E5C"/></svg><svg fill="none" viewBox="0 0 119 37" id="amazon" xmlns="http://www.w3.org/2000/svg"><path fill-rule="evenodd" clip-rule="evenodd" d="M17.483 17.983c-.09-.13-.18-.256-.27-.381-.564-.778-1.093-1.508-1.093-2.983V8.894c0-.203.002-.405.003-.605.013-2.178.026-4.142-1.603-5.71C13.098 1.223 10.786.75 9.008.75 5.512.75 1.6 2.048.771 6.357c-.06.472.237.708.533.767l3.556.354c.355 0 .593-.354.652-.65.296-1.475 1.54-2.183 2.963-2.183.77 0 1.6.295 2.074.944.453.65.436 1.47.42 2.245-.002.139-.005.276-.005.411v.472c-.292.033-.596.064-.91.096-1.97.202-4.277.439-5.965 1.203-2.31 1.003-3.97 3.01-3.97 6.02 0 3.776 2.43 5.724 5.511 5.724 2.608 0 4.03-.59 6.045-2.656.084.12.16.234.233.341.496.733.816 1.204 1.901 2.079.296.118.652.118.889-.06.711-.648 2.074-1.829 2.785-2.419.297-.295.238-.708 0-1.062Zm-7.23-1.594c-.593 1.004-1.482 1.653-2.548 1.653-1.423 0-2.252-1.063-2.252-2.656 0-3.128 2.785-3.659 5.452-3.659v.767l.002.05c.059 1.394.107 2.562-.654 3.845Zm47.925-7.517c.313-.032.617-.063.91-.096l.118-.413.001-.242c.005-.822.01-1.716-.475-2.414-.474-.649-1.304-.944-2.074-.944-1.422 0-2.667.708-2.963 2.184-.06.295-.297.649-.652.649l-3.556-.354c-.297-.06-.593-.295-.534-.767.83-4.309 4.742-5.607 8.238-5.607 1.778 0 4.09.472 5.512 1.83 1.628 1.567 1.616 3.53 1.603 5.71v.001c-.002.2-.003.4-.003.603v5.725c0 1.475.529 2.205 1.092 2.983.09.125.181.25.271.38.237.296.297.709 0 .945-.711.59-2.074 1.77-2.785 2.42-.237.177-.593.177-.89.059-1.085-.875-1.404-1.346-1.9-2.079l-.233-.34c-2.015 2.065-3.437 2.655-6.045 2.655-3.082 0-5.512-1.948-5.512-5.725 0-2.95 1.6-4.957 3.912-5.96 1.688-.764 3.994-1 5.965-1.203Zm-2.29 9.17c1.007 0 1.955-.65 2.548-1.653.66-1.204.656-2.307.652-3.591v-1.071c-2.667 0-5.453.531-5.453 3.66 0 1.593.83 2.655 2.252 2.655Zm-31.174 3.423h-3.675c-.355-.06-.652-.295-.71-.65V1.99c0-.354.296-.649.71-.649h3.438c.355.06.652.295.652.65v2.478h.059c.948-2.36 2.608-3.482 4.86-3.482 2.252 0 3.733 1.121 4.74 3.482.89-2.36 2.905-3.482 5.098-3.482 1.54 0 3.26.65 4.267 2.066 1.018 1.368.987 3.258.958 5.036-.005.292-.01.582-.01.865v11.863c0 .354-.296.649-.711.649h-3.675a.656.656 0 0 1-.652-.65v-9.973c0-.145.002-.325.004-.526.01-.947.025-2.383-.122-3.015-.237-1.24-1.067-1.594-2.133-1.594-.89 0-1.838.59-2.193 1.535-.37.843-.363 2.205-.357 3.243l.001.357v9.974c0 .354-.296.649-.711.649h-3.675a.656.656 0 0 1-.651-.65v-9.973c0-.222.003-.454.007-.692.034-2.04.076-4.502-2.26-4.502-2.559 0-2.553 2.772-2.548 4.926v10.242c0 .354-.296.649-.711.649Zm57.19-5.076c-2.133-1.18-4.563-1.534-6.874-1.475l6.282-8.912c.593-.826.89-1.298.89-1.711V1.989c0-.413-.297-.649-.712-.649H69.4a.656.656 0 0 0-.652.65v2.655c0 .413.296.65.711.65h6.282l-7.23 10.327c-.415.65-.415 1.416-.415 1.83v2.714c0 .413.415.827.83.59 4.09-2.183 9.008-1.947 12.742 0 .474.237.889-.236.889-.59v-2.891c-.06-.236-.178-.65-.652-.886ZM68.57 25.124c-.711.059-.77-.531-.178-.944 3.912-2.774 10.431-1.948 11.142-.945.77.886-.237 7.377-3.911 10.446-.534.472-1.067.236-.83-.413l.043-.106c.85-2.115 2.668-6.64 1.794-7.743-.854-1.078-5.483-.575-7.79-.325l-.27.03ZM48.953 31.91c7.646 0 16.061-1.594 23.766-4.84 1.185-.53 2.133.708.948 1.653-6.875 5.016-16.89 7.73-25.484 7.73-12.031 0-22.877-4.425-31.114-11.802-.652-.59-.06-1.417.71-.945 8.89 5.135 19.855 8.204 31.174 8.204Zm35.382-20.538c0-5.843 2.904-10.387 8.238-10.387 5.452 0 8.356 4.662 8.415 10.564 0 5.725-3.26 10.269-8.415 10.269-5.334 0-8.238-4.662-8.238-10.446Zm5.393-.455c-.001 2.353-.003 7.065 2.845 7.065 2.844 0 2.963-3.954 3.022-6.374 0-1.534-.059-3.482-.533-4.957-.415-1.299-1.245-1.83-2.43-1.83-2.726 0-2.904 3.66-2.904 5.96v.136Zm18.846-6.155c1.008-2.538 2.43-3.777 4.979-3.777 1.6 0 3.2.59 4.326 2.302.948 1.475.948 4.013.948 5.842v11.804a.703.703 0 0 1-.711.59h-3.674c-.356 0-.593-.295-.652-.59v-10.21l.003-.49c.017-2.02.038-4.586-2.315-4.586-.889 0-1.718.59-2.133 1.476-.534 1.121-.593 2.301-.593 3.54v10.093c0 .354-.296.649-.711.649h-3.674a.656.656 0 0 1-.652-.65V1.99c.059-.295.355-.59.711-.59h3.378c.296 0 .593.236.652.531v2.833h.118Z" fill="#2E3E5C"/></svg><svg fill="none" viewBox="0 0 110 42" id="creative" xmlns="http://www.w3.org/2000/svg"><path fill-rule="evenodd" clip-rule="evenodd" d="M108.659 20.348c-.303 1.137-1.445 5.424-4.978 5.424-1.577 0-2.678-1.162-3.338-2.577 4.915-1.088 6.565-4.934 6.565-7.547 0-3.047-2.2-4.172-4.071-4.172-3.044 0-7.041 2.83-7.041 8.309 0 .508.036.98.073 1.415-1.064-.327-1.98-.871-2.604-1.814.917-4.064.77-7.947-1.137-7.947-1.064 0-1.98 1.38-1.98 4.427 0 1.197.33 2.54.953 3.737-.403 1.85-1.724 6.35-3.447 6.35-2.036 0-1.755-8.32-1.644-11.597.017-.502.03-.885.03-1.102 0-1.343-3.264-2.722-3.961-2.032-.293.29-.367 2.104-.367 4.426 0 1.923.147 4.173.587 6.277-.22 1.125-1.21 4.064-3.007 4.064-2.297 0-1.755-7.12-1.493-10.56.056-.735.1-1.301.1-1.595 0-1.197-3.118-2.322-3.889-1.596-.293.29-.513 2.43-.513 5.733 0 1.378.073 2.83.293 4.209-.293 1.45-1.467 3.81-3.337 3.81-2.995 0-1.698-11.37-.89-18.452l.01-.09c.477-.072.99-.145 1.503-.217l.321-.037c1.247-.142 2.613-.299 2.613.436 0 1.85 1.247 2.43 2.164 2.43 1.027 0 1.907-.798 1.907-2.322 0-1.487-1.32-2.902-3.63-2.902-1.54 0-3.118.181-4.658.435l.086-.9c.075-.76.134-1.36.134-1.785 0-1.56-3.264-3.084-3.924-2.43-.11.108-.55 2.575-.954 6.022-2.274.436-4.51.835-6.748.835-.77 0-.66 2.322 1.944 2.322 1.503 0 3.007-.327 4.547-.726a84.725 84.725 0 0 0-.366 7.584c0 2.285.146 4.281.44 5.986-.294 1.27-1.21 3.847-2.934 3.847-2.746 0-2.116-7.811-1.827-11.397.058-.724.103-1.276.103-1.557 0-.798-3.007-2.54-3.63-1.923-.074.073-.148.58-.148.58s-.403-.29-1.503-.29c-4.218 0-7.592 5.153-7.592 9.833 0 .218 0 .436.037.654-.66 1.523-2.31 4.136-5.282 4.136-1.503 0-2.567-.98-3.3-2.25 4.62-1.306 6.418-5.297 6.418-7.873 0-3.012-2.567-4.5-4.438-4.5-3.264 0-6.821 3.23-6.821 8.672 0 1.597.293 2.94.806 4.1-.586.908-1.467 1.815-2.677 1.815-2.765 0-1.737-7.531-1.276-10.908.102-.744.176-1.286.176-1.502 0-.29 0-.87-.55-1.233-.494-.36-2.678-.72-4.394-1.002a44.594 44.594 0 0 1-1.731-.304v-.799c0-2.177-1.357-2.648-2.274-2.648-1.504 0-1.797 1.669-1.797 2.068s.11 1.814 1.614 2.649c0 4.027-2.604 13.57-9.572 13.57-5.282 0-7.189-5.37-7.189-9.362 0-6.748 3.998-11.937 6.565-11.937 1.61 0 1.705 1.542 1.8 3.09.097 1.555.194 3.115 1.83 3.115 2.275 0 2.605-2.177 2.605-3.193 0-1.887-1.98-5.407-6.235-5.407C4.988 2.223 0 10.351 0 17.317 0 24.03 4.658 29.4 11.186 29.4c10.086 0 12.58-10.595 13.093-16.51.234.065.584.143.945.224.654.146 1.344.3 1.439.394.117.115.02.924-.119 2.095-.166 1.401-.395 3.32-.395 5.198 0 4.318 1.43 7.8 4.878 7.8 2.164 0 3.888-1.56 4.805-2.757 1.393 1.778 3.41 2.685 5.39 2.685 3.412 0 5.649-2.104 6.75-3.773.953 2.54 2.896 3.773 4.657 3.773 2.457 0 3.924-3.265 3.998-3.773.733 2.285 2.457 3.846 4.4 3.846 2.458 0 3.961-2.214 4.548-3.592.88 2.322 2.274 3.592 4.291 3.592 2.31 0 3.814-2.068 4.511-3.447.734 2.032 1.944 3.447 3.851 3.447 2.567 0 4.181-2.613 4.695-3.919.843 2.25 2.163 3.846 4.217 3.846 2.274 0 4.254-3.23 5.428-6.857a6.43 6.43 0 0 0 3.704 1.741c1.137 3.266 3.815 5.08 6.639 5.08 4.914 0 6.821-5.007 7.041-6.168.294-1.198-.843-2.613-1.21-2.25-.014.014-.04.111-.083.273ZM40.709 13c2.054 0 .844 7.764-2.53 9.034-.257-.834-.367-1.632-.367-2.25C37.775 17.173 38.84 13 40.71 13Zm12.507 12.336c-3.595 0-1.064-12.3 1.797-12.3 1.907 0 1.614 12.3-1.797 12.3Zm49.144-12.264c1.981 0 .844 8.019-2.603 8.527a6.937 6.937 0 0 1-.257-1.814c0-2.613.99-6.713 2.86-6.713ZM34.216 34.3h-1.194a.205.205 0 0 0-.186.113L30.71 38c-.111.113-.186.113-.26 0l-2.052-3.586a.205.205 0 0 0-.186-.113h-1.156a.256.256 0 0 0-.261.264v7.172c0 .15.112.264.26.264h1.157c.15 0 .26-.113.26-.264v-3.7c0-.226.225-.339.374-.15l1.603 2.642c.112.15.299.15.373 0l1.641-2.642c.15-.189.373-.076.373.15v3.7c0 .15.112.264.261.264h1.193c.15 0 .261-.113.261-.264v-7.172c-.074-.15-.186-.264-.335-.264Zm8.373 0c.108 0 .18.076.217.152l3.005 7.207a.24.24 0 0 1-.218.341H44.4c-.109 0-.181-.076-.217-.152l-.471-1.213c-.036-.076-.109-.152-.217-.152h-3.078c-.108 0-.18.076-.217.152l-.434 1.213c-.036.076-.109.152-.217.152h-1.231a.24.24 0 0 1-.217-.341l3.04-7.207c.037-.076.11-.152.218-.152h1.23Zm-1.376 4.703h1.557c.144 0 .29-.19.253-.34l-.796-2.087c-.073-.19-.362-.19-.435 0l-.796 2.086a.24.24 0 0 0 .217.341Zm23.167-1.495c-.07.076-.07.227 0 .302l2.565 3.813c.106.15 0 .377-.178.377h-1.354a.195.195 0 0 1-.178-.113l-1.78-2.718c-.072-.113-.25-.113-.357 0l-.926 1.17c0 .02-.008.047-.017.076a.306.306 0 0 0-.018.075v1.246c0 .113-.071.226-.214.226h-1.068c-.107 0-.214-.075-.214-.226v-7.21c0-.113.071-.226.214-.226h1.068c.107 0 .214.076.214.227v2.944c0 .226.25.34.392.15l2.457-3.245a.264.264 0 0 1 .178-.076h1.21c.179 0 .286.227.179.378l-2.173 2.83Zm12.217 2.937h-3.513a.255.255 0 0 1-.256-.266v-1.138c0-.151.11-.265.256-.265h2.342c.147 0 .256-.114.256-.266v-.834c0-.152-.11-.266-.256-.266h-2.342c-.146 0-.256-.113-.256-.265v-1.1c0-.152.11-.266.256-.266h3.257c.146 0 .256-.114.256-.265v-.949c0-.151-.11-.265-.256-.265h-4.867a.255.255 0 0 0-.256.266v7.168c0 .152.11.266.256.266h5.123a.255.255 0 0 0 .256-.266v-.948c.037-.227-.11-.341-.256-.341Zm4.007-6.145h5.957c.11 0 .22.105.146.209v.905c0 .105-.073.21-.22.21h-1.936c-.11 0-.22.069-.22.208v5.259c0 .105-.073.209-.219.209H82.98c-.11 0-.219-.07-.219-.209v-5.259c0-.104-.073-.209-.22-.209h-1.936c-.11 0-.22-.07-.22-.209v-.905c0-.105.074-.209.22-.209Zm-28.102 0c2.02 0 3.203 1.208 3.203 2.869 0 1.019-.418 1.698-.975 2.189a.31.31 0 0 0-.07.302l.94 2c.07.151-.034.34-.208.34h-1.219c-.105 0-.174-.075-.209-.151l-.8-1.736c-.057-.123-.114-.121-.264-.116a3.334 3.334 0 0 1-.12.002h-.975c-.209 0-.244.038-.244.227v1.51c0 .113-.07.226-.209.226h-1.079c-.104 0-.209-.075-.209-.226v-7.172c0-.113.07-.226.209-.226.766-.038 1.497-.038 2.229-.038Zm-.175 4.236c.093-.004.186-.008.279-.008 1.08-.076 1.567-.642 1.567-1.36 0-.867-.696-1.32-1.602-1.358-.313-.038-.557-.038-.8-.038-.105 0-.21.075-.21.227V38.3c0 .113.07.227.21.227.185.025.37.016.556.008Z" fill="#2E3E5C"/></svg><svg fill="none" viewBox="0 0 114 94" id="decor_dots" xmlns="http://www.w3.org/2000/svg"><ellipse cx="20.179" cy="3.167" rx="2.5" ry="2.625" transform="rotate(14.484 20.18 3.167)" fill="#706FE5"/><ellipse cx="9.228" cy="45.559" rx="2.5" ry="2.625" transform="rotate(14.484 9.228 45.56)" fill="#706FE5"/><ellipse cx="56.381" cy="12.518" rx="2.5" ry="2.625" transform="rotate(14.484 56.38 12.518)" fill="#706FE5"/><ellipse cx="45.43" cy="54.911" rx="2.5" ry="2.625" transform="rotate(14.484 45.43 54.911)" fill="#706FE5"/><ellipse cx="92.583" cy="21.87" rx="2.5" ry="2.625" transform="rotate(14.484 92.583 21.87)" fill="#706FE5"/><ellipse cx="81.631" cy="64.263" rx="2.5" ry="2.625" transform="rotate(14.484 81.631 64.263)" fill="#706FE5"/><ellipse cx="14.704" cy="24.363" rx="2.5" ry="2.625" transform="rotate(14.484 14.704 24.363)" fill="#706FE5"/><ellipse cx="3.753" cy="66.755" rx="2.5" ry="2.625" transform="rotate(14.484 3.753 66.755)" fill="#706FE5"/><ellipse cx="50.905" cy="33.715" rx="2.5" ry="2.625" transform="rotate(14.484 50.905 33.715)" fill="#706FE5"/><ellipse cx="39.954" cy="76.107" rx="2.5" ry="2.625" transform="rotate(14.484 39.954 76.107)" fill="#706FE5"/><ellipse cx="87.107" cy="43.067" rx="2.5" ry="2.625" transform="rotate(14.484 87.107 43.067)" fill="#706FE5"/><ellipse cx="76.156" cy="85.459" rx="2.5" ry="2.625" transform="rotate(14.484 76.156 85.46)" fill="#706FE5"/><ellipse cx="38.28" cy="7.842" rx="2.5" ry="2.625" transform="rotate(14.484 38.28 7.842)" fill="#706FE5"/><ellipse cx="27.329" cy="50.235" rx="2.5" ry="2.625" transform="rotate(14.484 27.329 50.235)" fill="#706FE5"/><ellipse cx="74.482" cy="17.194" rx="2.5" ry="2.625" transform="rotate(14.484 74.482 17.194)" fill="#706FE5"/><ellipse cx="63.531" cy="59.587" rx="2.5" ry="2.625" transform="rotate(14.484 63.53 59.587)" fill="#706FE5"/><ellipse cx="110.683" cy="26.546" rx="2.5" ry="2.625" transform="rotate(14.484 110.683 26.546)" fill="#706FE5"/><ellipse cx="99.732" cy="68.939" rx="2.5" ry="2.625" transform="rotate(14.484 99.732 68.939)" fill="#706FE5"/><ellipse cx="32.805" cy="29.039" rx="2.5" ry="2.625" transform="rotate(14.484 32.805 29.039)" fill="#706FE5"/><ellipse cx="21.853" cy="71.431" rx="2.5" ry="2.625" transform="rotate(14.484 21.853 71.431)" fill="#706FE5"/><ellipse cx="69.006" cy="38.391" rx="2.5" ry="2.625" transform="rotate(14.484 69.006 38.39)" fill="#706FE5"/><ellipse cx="58.055" cy="80.783" rx="2.5" ry="2.625" transform="rotate(14.484 58.055 80.783)" fill="#706FE5"/><ellipse cx="105.208" cy="47.742" rx="2.5" ry="2.625" transform="rotate(14.484 105.208 47.742)" fill="#706FE5"/><ellipse cx="94.257" cy="90.135" rx="2.5" ry="2.625" transform="rotate(14.484 94.257 90.135)" fill="#706FE5"/></svg><svg fill="none" viewBox="0 0 32 30" id="diamond" xmlns="http://www.w3.org/2000/svg"><g clip-path="url(#fa)"><path d="m6.11 7.153 6.605-2.94 7.07-1.513 7.576 5.286-7.594 17.885L3.1 15.886 6.11 7.153Z" fill="#FDB300"/><path d="m8.013 14.286 11.754 11.585L3.1 15.886l4.914-1.6ZM22.448 9.586l-2.68 16.285L27.36 7.986l-4.913 1.6Z" fill="#EA6C00"/><path d="m8.013 14.286 14.435-4.7-2.68 16.285L8.012 14.286Z" fill="#FDAD00"/><path d="M12.715 4.213 6.11 7.153l1.903 7.133 4.702-10.073ZM12.715 4.213l7.07-1.513 2.662 6.886-9.732-5.373Z" fill="#FDD231"/><path d="M27.361 7.986 19.785 2.7l2.663 6.886 4.913-1.6ZM3.099 15.886 6.11 7.153l1.903 7.133-4.914 1.6Z" fill="#FDAD00"/><path d="M12.715 4.213 8.013 14.286l14.435-4.7-9.733-5.373Z" fill="#FEEEB7"/></g><defs><clipPath id="fa"><path fill="#fff" transform="rotate(-18.036 26.01 2.241)" d="M0 0h25.568v22.788H0z"/></clipPath></defs></svg><svg fill="none" viewBox="0 0 50 39" id="dots" xmlns="http://www.w3.org/2000/svg"><path d="m32.146 21.9-4.7 16.3h11.9l6.4-14.7c2.9-6.4 3.3-8.6 3.3-11.4 0-6.8-4.8-11.2-11.4-11.2-6.5 0-11.4 4.4-11.4 11.2 0 4.7 2.3 8.1 5.9 9.8Zm-26.2 0-4.7 16.3h11.9l6.4-14.7c2.9-6.4 3.3-8.6 3.3-11.4 0-6.8-4.8-11.2-11.4-11.2-6.5 0-11.4 4.4-11.4 11.2 0 4.7 2.3 8.1 5.9 9.8Z" fill="#706FE5"/></svg><svg fill="none" viewBox="0 0 83 83" id="elipseBef" xmlns="http://www.w3.org/2000/svg"><path d="M41.5 0A41.5 41.5 0 1 1 0 41.5h41.5V0Z" fill="#706FE5"/></svg><svg fill="none" viewBox="0 0 24 24" id="email" xmlns="http://www.w3.org/2000/svg"><g opacity=".7" fill="#2E3E5C"><path d="M12.694 15.032a1.346 1.346 0 0 1-.708.198c-.227 0-.482-.056-.709-.198L0 8.146V17.3a3.543 3.543 0 0 0 3.542 3.542h16.916A3.543 3.543 0 0 0 24 17.299V8.146l-11.306 6.886Z"/><path d="M20.458 3.16H3.542A3.521 3.521 0 0 0 .113 5.935l11.901 7.254 11.873-7.254a3.521 3.521 0 0 0-3.429-2.777Z"/></g></svg><svg fill="none" viewBox="0 0 62 62" id="figma" xmlns="http://www.w3.org/2000/svg"><g clip-path="url(#ja)"><path d="M30.752 56.317a8 8 0 0 0 5.17-10.063l-2.447-7.617-7.617 2.447a8 8 0 0 0 4.894 15.233Z" fill="#0ACF83"/><path d="M15.795 35.914a8 8 0 0 1 5.17-10.064l7.617-2.446 4.893 15.233-7.617 2.447a8 8 0 0 1-10.063-5.17Z" fill="#A259FF"/><path d="M10.902 20.68a8 8 0 0 1 5.164-10.061l7.617-2.447 4.893 15.234-7.61 2.444a8 8 0 0 1-10.064-5.17Z" fill="#F24E1E"/><path d="m23.689 8.17 7.616-2.446A8 8 0 1 1 36.2 20.957l-7.617 2.447L23.689 8.17Z" fill="#FF7262"/><path d="M46.262 26.127a8 8 0 1 1-15.233 4.893 8 8 0 0 1 15.233-4.893Z" fill="#1ABCFE"/></g><defs><clipPath id="ja"><path fill="#fff" transform="rotate(-17.808 49.923 5.1)" d="M0 0h48v48H0z"/></clipPath></defs></svg><svg fill="none" viewBox="0 0 13 13" id="footer1" xmlns="http://www.w3.org/2000/svg"><path d="M6.5 3.605A3.145 3.145 0 0 0 3.355 6.75 3.128 3.128 0 0 0 6.5 9.895 3.145 3.145 0 0 0 9.645 6.75 3.163 3.163 0 0 0 6.5 3.605Zm0 5.196A2.048 2.048 0 0 1 4.45 6.75c0-1.121.902-2.023 2.05-2.023 1.121 0 2.023.902 2.023 2.023 0 1.148-.902 2.05-2.023 2.05Zm3.992-5.305a.735.735 0 0 0-.738-.738.735.735 0 0 0-.738.738c0 .41.328.738.738.738s.738-.328.738-.738Zm2.078.738c-.054-.984-.273-1.859-.984-2.57C10.875.954 10 .734 9.016.68 8.004.625 4.969.625 3.957.68c-.984.054-1.832.273-2.57.984-.711.711-.93 1.586-.985 2.57-.054 1.012-.054 4.047 0 5.059.055.984.274 1.832.985 2.57.738.711 1.586.93 2.57.985 1.012.054 4.047.054 5.059 0 .984-.055 1.859-.274 2.57-.985.71-.738.93-1.586.984-2.57.055-1.012.055-4.047 0-5.059Zm-1.312 6.125c-.192.547-.63.957-1.149 1.176-.82.328-2.734.246-3.609.246-.902 0-2.816.082-3.61-.246a2.074 2.074 0 0 1-1.175-1.176c-.328-.793-.246-2.707-.246-3.609 0-.875-.082-2.79.246-3.61A2.11 2.11 0 0 1 2.89 1.993c.793-.328 2.707-.246 3.609-.246.875 0 2.79-.082 3.61.246.519.192.93.63 1.148 1.149.328.82.246 2.734.246 3.609 0 .902.082 2.816-.246 3.61Z" fill="#fff"/></svg><svg fill="none" viewBox="0 0 14 15" id="footer2" xmlns="http://www.w3.org/2000/svg"><path d="M13.781 7.75A6.78 6.78 0 0 0 7 .969 6.78 6.78 0 0 0 .219 7.75c0 3.39 2.46 6.207 5.715 6.7V9.718H4.21V7.75h1.723V6.273c0-1.695 1.011-2.652 2.543-2.652.765 0 1.53.137 1.53.137v1.668H9.16c-.848 0-1.12.52-1.12 1.066V7.75h1.886l-.301 1.969H8.039v4.73a6.773 6.773 0 0 0 5.742-6.699Z" fill="#fff"/></svg><svg fill="none" viewBox="0 0 14 12" id="footer3" xmlns="http://www.w3.org/2000/svg"><path d="M12.55 2.906a6.083 6.083 0 0 0 1.423-1.476 5.382 5.382 0 0 1-1.641.437A2.805 2.805 0 0 0 13.59.281a6.063 6.063 0 0 1-1.805.711A2.871 2.871 0 0 0 9.68.09a2.87 2.87 0 0 0-2.871 2.87c0 .22.027.438.082.657A8.33 8.33 0 0 1 .957.61c-.246.41-.383.903-.383 1.45 0 .984.492 1.859 1.285 2.378-.464-.027-.93-.136-1.312-.355v.027c0 1.395.984 2.543 2.297 2.817-.219.054-.492.11-.739.11-.19 0-.355-.028-.546-.056a2.857 2.857 0 0 0 2.68 1.997 5.772 5.772 0 0 1-3.555 1.23c-.247 0-.465-.027-.684-.055 1.258.82 2.762 1.286 4.402 1.286 5.278 0 8.149-4.348 8.149-8.149v-.383Z" fill="#fff"/></svg><svg fill="none" viewBox="0 0 14 15" id="footer4" xmlns="http://www.w3.org/2000/svg"><path d="M4.73 11.633c0-.055-.054-.11-.136-.11-.082 0-.137.055-.137.11s.055.11.137.082c.082 0 .136-.027.136-.082Zm-.847-.137c0 .055.054.137.137.137.054.027.136 0 .164-.055 0-.055-.028-.11-.11-.137-.082-.027-.164 0-.191.055Zm1.23-.027c-.082 0-.136.054-.136.136 0 .055.082.082.164.055.082-.027.136-.055.109-.11 0-.054-.082-.109-.137-.081ZM6.891.969C3.117.969.219 3.867.219 7.64c0 3.035 1.886 5.632 4.62 6.562.356.055.466-.164.466-.328V12.18s-1.914.41-2.325-.82c0 0-.3-.794-.738-.985 0 0-.629-.438.028-.438 0 0 .683.055 1.066.711.602 1.067 1.586.766 1.996.575.055-.438.219-.739.438-.93-1.532-.164-3.09-.383-3.09-3.008 0-.765.218-1.12.656-1.613-.082-.192-.3-.902.082-1.86.547-.164 1.887.739 1.887.739.547-.164 1.12-.219 1.695-.219.602 0 1.176.055 1.723.219 0 0 1.312-.93 1.886-.739.383.958.137 1.668.082 1.86.438.492.711.848.711 1.613 0 2.625-1.613 2.844-3.144 3.008.246.219.465.629.465 1.285 0 .902-.028 2.05-.028 2.27 0 .191.137.41.492.328 2.735-.903 4.594-3.5 4.594-6.535 0-3.774-3.09-6.672-6.89-6.672Zm-4.02 9.433c-.055.028-.027.11 0 .164.055.028.11.055.164.028.027-.028.027-.11-.027-.164-.055-.028-.11-.055-.137-.028Zm-.3-.218c-.028.054 0 .082.054.109.055.027.11.027.137-.027 0-.028-.028-.055-.082-.082-.055-.028-.082-.028-.11 0Zm.874.984c-.027.027-.027.11.055.164.055.055.137.082.164.027.027-.027.027-.109-.027-.164-.055-.054-.137-.082-.192-.027Zm-.3-.41c-.055.027-.055.11 0 .164.054.055.109.082.164.055.027-.028.027-.11 0-.165-.055-.054-.11-.082-.164-.054Z" fill="#fff"/></svg><svg fill="none" viewBox="0 0 109 36" id="google" xmlns="http://www.w3.org/2000/svg"><path fill-rule="evenodd" clip-rule="evenodd" d="M14.057 12.686h12.754s.226.914.226 2.514c0 7.6-5.441 12.686-12.866 12.686-8.446 0-14.171-6.914-14.171-14C0 6.629 6.065-.057 13.944 0c6.178 0 9.58 3.772 9.58 3.772l-2.608 2.743s-2.494-2.743-6.802-2.743C8.559 3.772 4.138 8.229 4.138 14c0 5.886 4.648 10.114 9.976 10.114 4.138 0 8.559-2.342 9.012-7.657h-9.069v-3.771Zm23.127-2.8c-5.215 0-8.956 4.114-8.956 8.914 0 4.914 3.627 9.086 9.069 9.086 4.931 0 8.899-3.714 8.899-8.971-.057-5.943-4.705-9.029-9.012-9.029Zm.056 3.6c2.551 0 4.988 2.114 4.988 5.428 0 3.315-2.38 5.429-4.988 5.429-2.834 0-5.044-2.286-5.044-5.486-.057-3.085 2.154-5.371 5.044-5.371ZM47.726 18.8c0-4.8 3.742-8.914 8.956-8.914 4.308 0 8.956 3.086 9.013 9.029 0 5.257-3.968 8.97-8.9 8.97-5.44 0-9.069-4.17-9.069-9.085Zm14.001.114c0-3.314-2.437-5.428-4.988-5.428-2.89 0-5.101 2.286-5.045 5.371 0 3.2 2.21 5.486 5.045 5.486 2.607 0 4.988-2.114 4.988-5.428Zm14.057-8.97c-4.818 0-8.559 4.228-8.559 8.97 0 5.372 4.365 9.029 8.446 9.029 2.55 0 3.854-.972 4.931-2.172v1.772c0 3.086-1.87 4.971-4.704 4.971-2.721 0-4.082-2.057-4.592-3.2l-3.457 1.429C69.039 33.314 71.476 36 75.84 36c4.761 0 8.389-3.029 8.389-9.371V10.457h-3.741V12c-1.02-1.257-2.608-2.057-4.705-2.057Zm.34 3.542c2.324 0 4.762 2.057 4.762 5.486 0 3.542-2.381 5.428-4.818 5.428-2.551 0-4.932-2.114-4.932-5.371.057-3.543 2.494-5.543 4.988-5.543Zm16.552 5.371c0-5.371 3.797-8.971 8.332-8.971 3.514 0 6.178 2.4 7.368 5.143l.624 1.486-11.96 5.028c.737 1.371 1.87 2.743 4.365 2.743 2.21 0 3.571-1.2 4.364-2.457l3.118 2.114c-1.361 1.828-3.741 3.943-7.482 3.943-4.478 0-8.73-3.372-8.73-9.029Zm11.789-3.542c-.566-1.086-1.7-1.943-3.344-1.943-2.55 0-5.045 2.685-4.591 5.314l7.935-3.371ZM90.918 27.372h-3.91V.857h3.91v26.515Z" fill="#2E3E5C"/></svg><svg fill="none" viewBox="0 0 94 38" id="logo" xmlns="http://www.w3.org/2000/svg"><path d="M15.592 16.688v-4.224h2.232c1.632 0 2.328.816 2.328 2.112 0 1.296-.696 2.112-2.328 2.112h-2.232Zm8.736-2.112c0-3.096-2.064-5.424-6.192-5.424h-6.648V26h4.104v-6.048h2.544c4.296 0 6.192-2.592 6.192-5.376Zm15.316 4.728c0-4.248-3.024-6.888-6.96-6.888-3.912 0-6.96 2.64-6.96 6.888 0 4.248 2.976 6.888 6.912 6.888s7.008-2.64 7.008-6.888Zm-9.744 0c0-2.28 1.296-3.336 2.784-3.336 1.44 0 2.784 1.056 2.784 3.336 0 2.256-1.368 3.336-2.832 3.336-1.488 0-2.736-1.08-2.736-3.336ZM44.152 26h4.512l2.184-8.688L52.96 26h4.536l3.624-13.392h-3.864l-1.872 9.528-2.28-9.528H48.76l-2.256 9.576-1.896-9.576h-4.104L44.152 26Zm24.512-10.296c1.368 0 2.52.84 2.52 2.304h-5.136c.24-1.488 1.272-2.304 2.616-2.304Zm6.408 5.856h-4.368c-.336.72-.984 1.296-2.136 1.296-1.32 0-2.4-.816-2.544-2.568h9.288c.048-.408.072-.816.072-1.2 0-4.08-2.76-6.672-6.672-6.672-3.984 0-6.768 2.64-6.768 6.888 0 4.248 2.832 6.888 6.768 6.888 3.336 0 5.712-2.016 6.36-4.632Zm6.656-1.776c0-2.304 1.128-2.976 3.072-2.976h1.128v-4.344c-1.8 0-3.264.96-4.2 2.376v-2.232h-4.104V26h4.104v-6.216Z" fill="#fff"/><circle cx="91" cy="24" r="3" fill="#706FE5"/><path d="M16 30a8 8 0 1 1-8-8v8h8Z" fill="#706FE5"/></svg><svg fill="none" viewBox="0 0 24 24" id="services1" xmlns="http://www.w3.org/2000/svg"><path d="M17.143 0v24H12.57V0h4.572Z" fill="#706FE5"/><path d="M18.286 0H20a4 4 0 0 1 4 4v16a4 4 0 0 1-4 4h-1.714V0ZM11.429 0v24H6.857V0h4.572Z" fill="#2E3E5C"/><path d="M5.714 0v24H4a4 4 0 0 1-4-4V4a4 4 0 0 1 4-4h1.714Z" fill="#706FE5"/></svg><svg fill="none" viewBox="0 0 24 22" id="services2" xmlns="http://www.w3.org/2000/svg"><path d="M.947 13.898a.947.947 0 0 1 0-1.895h22.105a.947.947 0 1 1 0 1.895H.947ZM12.003 8.841a4.42 4.42 0 1 1 0-8.841 4.42 4.42 0 0 1 0 8.841Z" fill="#706FE5"/><path d="M12.003 5.052a.631.631 0 1 0 0-1.263.631.631 0 0 0 0 1.263Z" fill="#706FE5"/><path d="M9.476 9.514c-1.604 2.92-6.148 11.24-6.362 11.63a.631.631 0 0 1-.868.244A4.445 4.445 0 0 1 .602 15.3l5.76-10.16a5.688 5.688 0 0 0 3.114 4.374ZM17.64 5.136l5.759 10.16a4.449 4.449 0 0 1-1.64 6.092.632.632 0 0 1-.868-.245 4008.77 4008.77 0 0 0-6.36-11.632 5.689 5.689 0 0 0 3.109-4.375Z" fill="#2E3E5C"/></svg><svg fill="none" viewBox="0 0 15 24" id="services3" xmlns="http://www.w3.org/2000/svg"><path d="M12.563 6.703a5.303 5.303 0 0 0-5.297-5.297 5.303 5.303 0 0 0-5.297 5.297A5.303 5.303 0 0 0 7.266 12a5.303 5.303 0 0 0 5.296-5.297Z" fill="#706FE5"/><path d="M14.531 17.906V2.578A2.581 2.581 0 0 0 11.953 0H2.578A2.581 2.581 0 0 0 0 2.578v15.328h14.531Zm-5.39-2.812H5.39a.703.703 0 0 1 0-1.406h3.75a.703.703 0 1 1 0 1.406ZM3.516 6.422h.786a3.03 3.03 0 0 1 .371-.895l-.556-.556a.703.703 0 1 1 .994-.995l.556.556a3.03 3.03 0 0 1 .896-.371v-.786a.703.703 0 0 1 1.406 0v.786c.32.076.622.203.895.371l.556-.556a.703.703 0 0 1 .995.995l-.557.556c.17.273.296.574.372.895h.786a.703.703 0 0 1 0 1.406h-.786c-.076.32-.203.622-.372.895l.556.556a.703.703 0 0 1-.994.995l-.556-.556a3.029 3.029 0 0 1-.895.371v.786a.703.703 0 0 1-1.406 0v-.786a3.029 3.029 0 0 1-.896-.371l-.556.556a.701.701 0 0 1-.994 0 .703.703 0 0 1 0-.995l.556-.556a3.03 3.03 0 0 1-.371-.895h-.786a.703.703 0 0 1 0-1.406Z" fill="#706FE5"/><path d="M0 19.313v2.109A2.581 2.581 0 0 0 2.578 24h9.375a2.581 2.581 0 0 0 2.578-2.578v-2.11H0Zm8.203 3.046H6.328a.703.703 0 0 1 0-1.406h1.875a.703.703 0 1 1 0 1.406Z" fill="#2E3E5C"/></svg><svg fill="none" viewBox="0 0 48 48" id="services4" xmlns="http://www.w3.org/2000/svg"><path fill-rule="evenodd" clip-rule="evenodd" d="m29.222 34.56 1.536 7.68H33.6a.96.96 0 0 1 0 1.92H14.4a.96.96 0 1 1 0-1.92h3.264l1.536-7.68h-8.64a6.721 6.721 0 0 1-6.652-5.76h40.184a6.721 6.721 0 0 1-6.652 5.76h-8.218Z" fill="#2E3E5C"/><path d="M3.84 26.88V6.72a2.88 2.88 0 0 1 2.88-2.88h34.56a2.88 2.88 0 0 1 2.88 2.88v20.16H3.84Z" fill="#706FE5"/></svg><svg fill="none" viewBox="0 0 126 36" id="shopify" xmlns="http://www.w3.org/2000/svg"><path fill-rule="evenodd" clip-rule="evenodd" d="M30.868 32.78v-.001c-.064-.435-3.787-25.72-3.85-25.907 0-.189-.19-.252-.316-.252s-2.84-.19-2.84-.19l-2.083-2.08a.493.493 0 0 0-.312-.126 2.024 2.024 0 0 0-.364-.003l-.082.003s-.442.126-1.073.315c-.631-1.828-1.704-3.467-3.661-3.467h-.127C15.592.378 14.898 0 14.33 0 9.785 0 7.638 5.674 6.944 8.574c-1.768.568-3.03.946-3.156.946l-.064.021c-.886.295-.95.316-1.073 1.24C2.525 11.411 0 31.334 0 31.334l19.951 3.71-.003.073 10.92-2.332v-.005ZM18.875 4.918c-.322.12-.669.215-1.042.317-.212.058-.433.118-.663.187v-.378c0-1.135-.189-2.018-.442-2.711 1.074.063 1.768 1.26 2.147 2.585Zm-2.84.693c0-1.324-.19-2.333-.443-3.026-1.136.441-2.399 1.702-3.03 4.287 1.2-.378 2.399-.756 3.472-1.072v-.189Zm-1.832-4.287c.19 0 .38.063.569.19-1.452.693-3.03 2.395-3.662 5.863a47.83 47.83 0 0 1-2.187.652h-.001l-.59.167c.821-2.648 2.652-6.872 5.871-6.872ZM16.35 12.61l-1.326 3.971s-1.2-.63-2.588-.63c-2.083 0-2.21 1.324-2.21 1.64 0 .725.746 1.272 1.645 1.931 1.367 1.003 3.09 2.266 3.09 4.814 0 3.342-2.146 5.485-4.987 5.485-3.409 0-5.176-2.143-5.176-2.143l.883-3.027s1.831 1.577 3.346 1.577c1.01 0 1.389-.757 1.389-1.387 0-1.052-.755-1.655-1.601-2.33-1.082-.863-2.313-1.846-2.313-4.038 0-3.279 2.336-6.431 7.133-6.431 1.83 0 2.715.568 2.715.568Zm91.912 1.45h2.966l-.568 3.089h-2.967l-2.272 11.916h-4.293l2.273-11.853h-2.02l.631-3.216h2.02l.126-.693c.316-1.765 1.01-3.53 2.462-4.792 1.137-1.008 2.652-1.45 4.167-1.45 1.578 0 2.335.379 2.335.379l-.82 3.341s-.632-.19-1.389-.19c-1.389 0-2.273 1.325-2.525 2.775l-.126.694Zm-49.428-.316c-1.894 0-3.346.883-4.545 2.27h-.064l1.642-8.637h-4.293L47.408 29.19H51.7l1.452-7.44c.568-2.837 2.02-4.54 3.346-4.54.947 0 1.326.631 1.326 1.577 0 .567-.063 1.324-.19 1.892l-1.641 8.51h4.356l1.704-8.826c.19-.945.316-2.017.316-2.774-.063-2.396-1.326-3.846-3.535-3.846ZM43.557 20.05c-1.073-.567-1.641-1.072-1.641-1.765 0-.883.757-1.45 2.02-1.45 1.389 0 2.651.567 2.651.567l1.01-3.026s-.884-.694-3.598-.694c-3.724 0-6.313 2.144-6.313 5.107 0 1.702 1.2 3.026 2.841 3.909 1.326.757 1.768 1.261 1.768 2.018 0 .82-.632 1.45-1.894 1.45-1.83 0-3.472-.946-3.472-.946l-1.073 3.026s1.578 1.072 4.23 1.072c3.85 0 6.564-1.891 6.564-5.296-.063-1.702-1.452-2.963-3.093-3.972Zm19.885 3.468c0-5.107 3.409-9.773 8.522-9.773 3.977 0 5.808 2.837 5.808 5.99 0 5.233-3.41 9.772-8.46 9.772-3.85 0-5.87-2.648-5.87-5.99Zm6.439 2.648c-1.452 0-2.083-1.261-2.083-2.774 0-2.46 1.262-6.431 3.598-6.431 1.515 0 2.02 1.324 2.02 2.585-.063 2.585-1.326 6.62-3.535 6.62Zm14.266-9.899s1.642-2.522 4.545-2.522c3.094 0 4.356 2.522 4.356 5.422 0 5.233-3.282 10.34-8.27 10.34-1.64 0-2.525-.567-2.525-.567h-.063l-1.199 6.304h-4.23l2.904-15.572c.38-1.766.695-4.098.884-5.675h3.788l-.253 2.27h.063Zm.442 9.899c-1.136 0-1.767-.63-1.767-.63l.694-3.973c.505-2.648 1.894-4.413 3.346-4.413 1.325 0 1.704 1.198 1.704 2.333.063 2.837-1.578 6.683-3.977 6.683Zm12.12-16.14c0-1.388 1.074-2.46 2.462-2.46 1.263 0 2.147.946 2.147 2.144-.063 1.577-1.2 2.46-2.525 2.46h-.064c-1.199 0-2.02-.883-2.02-2.145Zm-3.535 19.04h4.293l2.904-15.132h-4.293l-2.904 15.132Zm28.281-15.006s-2.651 6.747-3.851 10.403h-.063c-.063-1.198-1.073-10.402-1.073-10.402h-4.482l2.588 13.87c.063.315 0 .504-.063.694a7.535 7.535 0 0 1-2.336 2.584c-.82.568-1.704.946-2.398 1.198L110.976 36c.884-.19 2.651-.883 4.166-2.333 1.957-1.828 3.725-4.665 5.619-8.448L126 14.059h-4.545Z" fill="#2E3E5C"/></svg></svg>